<mxfile host="app.diagrams.net" modified="2022-04-02T07:40:52.852Z" agent="5.0 (Macintosh; Intel Mac OS X 10_15_7) AppleWebKit/537.36 (KHTML, like Gecko) Chrome/99.0.4844.84 Safari/537.36" etag="3J72_HzqzNilpSzjVDEY" version="17.4.0" type="github">
  <diagram id="q9UrEvC_dNN4-reGY-YF" name="第 1 页">
    <mxGraphModel dx="1989" dy="1039" grid="1" gridSize="10" guides="1" tooltips="1" connect="1" arrows="1" fold="1" page="1" pageScale="1" pageWidth="827" pageHeight="1169" math="0" shadow="0">
      <root>
        <mxCell id="0" />
        <mxCell id="1" parent="0" />
        <mxCell id="6W5VXJktoGSDrMuBD9_8-5" value="IOT通用管理平台" style="swimlane;childLayout=stackLayout;resizeParent=1;resizeParentMax=0;startSize=20;" parent="1" vertex="1">
          <mxGeometry x="60" y="140" width="670" height="660" as="geometry" />
        </mxCell>
        <mxCell id="6W5VXJktoGSDrMuBD9_8-6" value="系统设置" style="swimlane;startSize=20;" parent="6W5VXJktoGSDrMuBD9_8-5" vertex="1">
          <mxGeometry y="20" width="120" height="640" as="geometry" />
        </mxCell>
        <mxCell id="6W5VXJktoGSDrMuBD9_8-12" style="edgeStyle=orthogonalEdgeStyle;rounded=0;orthogonalLoop=1;jettySize=auto;html=1;exitX=0.5;exitY=1;exitDx=0;exitDy=0;entryX=0.5;entryY=0;entryDx=0;entryDy=0;" parent="6W5VXJktoGSDrMuBD9_8-6" source="6W5VXJktoGSDrMuBD9_8-9" target="6W5VXJktoGSDrMuBD9_8-11" edge="1">
          <mxGeometry relative="1" as="geometry" />
        </mxCell>
        <mxCell id="6W5VXJktoGSDrMuBD9_8-9" value="部门配置" style="whiteSpace=wrap;html=1;" parent="6W5VXJktoGSDrMuBD9_8-6" vertex="1">
          <mxGeometry x="10" y="30" width="100" height="60" as="geometry" />
        </mxCell>
        <mxCell id="6W5VXJktoGSDrMuBD9_8-11" value="员工配置" style="whiteSpace=wrap;html=1;" parent="6W5VXJktoGSDrMuBD9_8-6" vertex="1">
          <mxGeometry x="12.5" y="120" width="95" height="60" as="geometry" />
        </mxCell>
        <mxCell id="6W5VXJktoGSDrMuBD9_8-37" value="消息通知配置" style="whiteSpace=wrap;html=1;" parent="6W5VXJktoGSDrMuBD9_8-6" vertex="1">
          <mxGeometry x="5" y="470" width="105" height="50" as="geometry" />
        </mxCell>
        <mxCell id="6W5VXJktoGSDrMuBD9_8-7" value="设备模版" style="swimlane;startSize=20;" parent="6W5VXJktoGSDrMuBD9_8-5" vertex="1">
          <mxGeometry x="120" y="20" width="130" height="640" as="geometry" />
        </mxCell>
        <mxCell id="6W5VXJktoGSDrMuBD9_8-16" value="模板管理" style="whiteSpace=wrap;html=1;" parent="6W5VXJktoGSDrMuBD9_8-7" vertex="1">
          <mxGeometry x="15" y="230" width="100" height="60" as="geometry" />
        </mxCell>
        <mxCell id="6W5VXJktoGSDrMuBD9_8-28" value="告警管理" style="swimlane;startSize=20;" parent="6W5VXJktoGSDrMuBD9_8-5" vertex="1">
          <mxGeometry x="250" y="20" width="140" height="640" as="geometry" />
        </mxCell>
        <mxCell id="6W5VXJktoGSDrMuBD9_8-26" value="报警信息" style="whiteSpace=wrap;html=1;" parent="6W5VXJktoGSDrMuBD9_8-28" vertex="1">
          <mxGeometry x="20" y="230" width="100" height="60" as="geometry" />
        </mxCell>
        <mxCell id="6W5VXJktoGSDrMuBD9_8-30" value="事件管理" style="swimlane;startSize=20;" parent="6W5VXJktoGSDrMuBD9_8-5" vertex="1">
          <mxGeometry x="390" y="20" width="140" height="640" as="geometry" />
        </mxCell>
        <mxCell id="6W5VXJktoGSDrMuBD9_8-31" value="事件处理" style="whiteSpace=wrap;html=1;" parent="6W5VXJktoGSDrMuBD9_8-30" vertex="1">
          <mxGeometry x="17.5" y="230" width="105" height="60" as="geometry" />
        </mxCell>
        <mxCell id="6W5VXJktoGSDrMuBD9_8-35" value="统计分析" style="swimlane;startSize=20;" parent="6W5VXJktoGSDrMuBD9_8-5" vertex="1">
          <mxGeometry x="530" y="20" width="140" height="640" as="geometry" />
        </mxCell>
        <mxCell id="6W5VXJktoGSDrMuBD9_8-36" value="kibana" style="whiteSpace=wrap;html=1;" parent="6W5VXJktoGSDrMuBD9_8-35" vertex="1">
          <mxGeometry x="18.75" y="230" width="102.5" height="60" as="geometry" />
        </mxCell>
        <mxCell id="6W5VXJktoGSDrMuBD9_8-38" style="edgeStyle=orthogonalEdgeStyle;rounded=0;jumpStyle=arc;orthogonalLoop=1;jettySize=auto;html=1;exitX=1;exitY=0.5;exitDx=0;exitDy=0;entryX=0.5;entryY=1;entryDx=0;entryDy=0;" parent="6W5VXJktoGSDrMuBD9_8-5" source="6W5VXJktoGSDrMuBD9_8-37" target="6W5VXJktoGSDrMuBD9_8-31" edge="1">
          <mxGeometry relative="1" as="geometry" />
        </mxCell>
        <mxCell id="xLBZNAY5NZvRFPIOG6ir-1" style="edgeStyle=orthogonalEdgeStyle;rounded=0;orthogonalLoop=1;jettySize=auto;html=1;exitX=1;exitY=0.5;exitDx=0;exitDy=0;" edge="1" parent="6W5VXJktoGSDrMuBD9_8-5" source="6W5VXJktoGSDrMuBD9_8-26" target="6W5VXJktoGSDrMuBD9_8-31">
          <mxGeometry relative="1" as="geometry" />
        </mxCell>
        <mxCell id="xLBZNAY5NZvRFPIOG6ir-2" style="edgeStyle=orthogonalEdgeStyle;rounded=0;orthogonalLoop=1;jettySize=auto;html=1;exitX=1;exitY=0.5;exitDx=0;exitDy=0;entryX=0;entryY=0.5;entryDx=0;entryDy=0;" edge="1" parent="6W5VXJktoGSDrMuBD9_8-5" source="6W5VXJktoGSDrMuBD9_8-16" target="6W5VXJktoGSDrMuBD9_8-26">
          <mxGeometry relative="1" as="geometry" />
        </mxCell>
        <mxCell id="xLBZNAY5NZvRFPIOG6ir-4" style="edgeStyle=orthogonalEdgeStyle;rounded=0;orthogonalLoop=1;jettySize=auto;html=1;exitX=1;exitY=0.5;exitDx=0;exitDy=0;entryX=0;entryY=0.5;entryDx=0;entryDy=0;" edge="1" parent="6W5VXJktoGSDrMuBD9_8-5" source="6W5VXJktoGSDrMuBD9_8-31" target="6W5VXJktoGSDrMuBD9_8-36">
          <mxGeometry relative="1" as="geometry" />
        </mxCell>
      </root>
    </mxGraphModel>
  </diagram>
</mxfile>
